<?xml version="1.0" encoding="utf-8"?>
<!-- Generator: Adobe Illustrator 23.0.1, SVG Export Plug-In . SVG Version: 6.00 Build 0)  -->
<svg version="1.1" id="Layer_1" xmlns="http://www.w3.org/2000/svg" xmlns:xlink="http://www.w3.org/1999/xlink" x="0px" y="0px"
	 viewBox="0 0 595.28 841.89" style="enable-background:new 0 0 595.28 841.89;" xml:space="preserve">
<style type="text/css">
	.st0{fill:#FFFFFF;stroke:#000000;stroke-width:18;stroke-miterlimit:10;}
</style>
<path class="st0" d="M371.7,494.85c0,46.62-37.79,84.42-84.41,84.42s-84.42-37.8-84.42-84.42s37.8-84.41,84.42-84.41
	S371.7,448.23,371.7,494.85z"/>
<g>
	<path class="st0" d="M539.93,518.69v-47.67l-58.81-7.26c-4.94-31.01-17.14-59.6-34.8-83.96l36.46-46.74l-33.7-33.7l-46.74,36.47
		c-24.37-17.66-52.95-29.86-83.96-34.79l-7.26-58.83h-47.66l-7.27,58.83c-31.01,4.94-59.59,17.13-83.95,34.79l-46.75-36.47
		l-33.7,33.7l36.47,46.74c-17.66,24.36-29.86,52.95-34.8,83.96l-58.82,7.26v47.67l58.82,7.26c4.93,31.01,17.13,59.6,34.79,83.97
		l-36.46,46.73l33.7,33.7l46.72-36.46c24.37,17.67,52.96,29.87,83.98,34.81l7.27,58.8h47.66l7.26-58.8
		c31.02-4.94,59.61-17.14,83.98-34.81l46.72,36.46l33.7-33.7l-36.45-46.73c17.66-24.37,29.86-52.96,34.79-83.97L539.93,518.69z
		 M287.29,579.27c-46.62,0-84.42-37.8-84.42-84.42s37.8-84.41,84.42-84.41s84.41,37.79,84.41,84.41S333.91,579.27,287.29,579.27z"/>
</g>
<path class="st0" d="M371.7,494.85c0,46.62-37.79,84.42-84.41,84.42s-84.42-37.8-84.42-84.42s37.8-84.41,84.42-84.41
	S371.7,448.23,371.7,494.85z"/>
</svg>
