<?xml version="1.0" encoding="utf-8"?>
<!-- Generator: Adobe Illustrator 23.0.1, SVG Export Plug-In . SVG Version: 6.00 Build 0)  -->
<svg version="1.1" xmlns="http://www.w3.org/2000/svg" xmlns:xlink="http://www.w3.org/1999/xlink" x="0px" y="0px"
	 viewBox="0 0 595.28 841.89" style="enable-background:new 0 0 595.28 841.89;" xml:space="preserve">
<style type="text/css">
	.st0{fill:#FFFFFF;stroke:#000000;stroke-width:16;stroke-miterlimit:10;}
</style>
<g id="Layer_1">
	<path class="st0" d="M502.43,613.5H123.07c-5.56,0-10.07-4.51-10.07-10.07V224.07c0-5.56,4.51-10.07,10.07-10.07h379.36
		c5.56,0,10.07,4.51,10.07,10.07v379.36C512.5,608.99,507.99,613.5,502.43,613.5z"/>
	<circle class="st0" cx="432.81" cy="283.06" r="49.06"/>
</g>
<g id="Layer_2">
	<path class="st0" d="M113,608l124.89-260.3c3.82-7.97,15.32-7.5,18.48,0.75l62.76,163.73c2.69,7.01,11.83,8.72,16.87,3.15
		l85.98-95.1c5-5.53,14.06-3.9,16.82,3.02L512.5,608"/>
</g>
</svg>
