<?xml version="1.0" encoding="utf-8"?>
<!-- Generator: Adobe Illustrator 23.0.1, SVG Export Plug-In . SVG Version: 6.00 Build 0)  -->
<svg version="1.1" xmlns="http://www.w3.org/2000/svg" xmlns:xlink="http://www.w3.org/1999/xlink" x="0px" y="0px"
	 viewBox="0 0 595.28 841.89" style="enable-background:new 0 0 595.28 841.89;" xml:space="preserve">
<style type="text/css">
	.st0{fill:#FFFFFF;stroke:#000000;stroke-width:18;stroke-miterlimit:10;}
</style>
<g id="Layer_2">
	<path class="st0" d="M297.64,325.88"/>
	<path class="st0" d="M417.75,471.02c0,64.26-58.54,116.36-130.75,116.36s-130.75-52.09-130.75-116.36"/>
	<path class="st0" d="M287,786"/>
	<path class="st0" d="M220.91,714c-3.29,0-5.93-2.8-5.66-6.08C218.34,671,249.28,642,287,642s68.66,29,71.75,65.92
		c0.27,3.28-2.37,6.08-5.66,6.08H220.91z"/>
	<line class="st0" x1="287" y1="642" x2="287" y2="587.38"/>
</g>
<g id="Layer_1">
	<path class="st0" d="M354,498.34H220c-19.33,0-35-15.67-35-35V243.7c0-19.33,15.67-35,35-35h134c19.33,0,35,15.67,35,35v219.64
		C389,482.67,373.33,498.34,354,498.34z"/>
</g>
</svg>
